<svg width="1879" height="341" viewBox="0 0 1879 341" fill="none" xmlns="http://www.w3.org/2000/svg">
<ellipse cx="226.485" cy="226.429" rx="48.5976" ry="48.6521" fill="#FFAB00"/>
<path fill-rule="evenodd" clip-rule="evenodd" d="M81.2493 183.914C79.4669 184.84 77.749 185.873 76.1042 187.004C77.9615 186.204 79.6898 185.16 81.2493 183.914ZM130.867 186.851C129.237 186.116 127.711 185.192 126.315 184.108C127.885 184.94 129.405 185.857 130.867 186.851Z" fill="url(#paint0_linear_2448_370)"/>
<path fill-rule="evenodd" clip-rule="evenodd" d="M126.315 148.425C127.711 147.341 129.237 146.417 130.867 145.682C129.405 146.676 127.885 147.592 126.315 148.425ZM130.867 186.851C129.237 186.116 127.711 185.192 126.315 184.108C127.885 184.94 129.405 185.857 130.867 186.851Z" fill="url(#paint1_linear_2448_370)"/>
<path fill-rule="evenodd" clip-rule="evenodd" d="M81.2493 148.619C79.4669 147.693 77.749 146.66 76.1042 145.528C77.9615 146.329 79.6898 147.373 81.2493 148.619ZM130.867 145.682C129.405 146.676 127.885 147.592 126.315 148.425C127.711 147.341 129.237 146.417 130.867 145.682Z" fill="url(#paint2_linear_2448_370)"/>
<path d="M76.1042 145.528C77.9615 146.329 79.6898 147.373 81.2493 148.619C86.4236 152.754 89.739 159.123 89.739 166.266C89.739 173.41 86.4236 179.779 81.2493 183.914C79.6898 185.16 77.9615 186.204 76.1042 187.004C63.3582 195.775 55 210.474 55 227.128C55 253.998 76.7579 275.78 103.598 275.78C130.437 275.78 152.195 253.998 152.195 227.128C152.195 210.377 143.739 195.603 130.867 186.851C129.237 186.116 127.711 185.192 126.315 184.108C121 179.979 117.579 173.523 117.579 166.266C117.579 159.01 121 152.554 126.315 148.425C127.711 147.341 129.237 146.417 130.867 145.682C143.739 136.93 152.195 122.156 152.195 105.405C152.195 78.5352 130.437 56.7529 103.598 56.7529C76.7579 56.7529 55 78.5352 55 105.405C55 122.059 63.3582 136.758 76.1042 145.528Z" fill="url(#paint3_linear_2448_370)"/>
<path fill-rule="evenodd" clip-rule="evenodd" d="M182.019 127.778C182.943 129.563 183.975 131.283 185.106 132.929C184.306 131.07 183.263 129.34 182.019 127.778ZM184.953 78.1049C184.218 79.7364 183.295 81.2647 182.212 82.6623C183.044 81.09 183.959 79.5689 184.953 78.1049Z" fill="url(#paint4_linear_2448_370)"/>
<path fill-rule="evenodd" clip-rule="evenodd" d="M146.57 82.6623C145.486 81.2647 144.564 79.7364 143.829 78.1049C144.822 79.5689 145.738 81.09 146.57 82.6623ZM184.953 78.1049C184.218 79.7364 183.295 81.2647 182.212 82.6623C183.044 81.09 183.959 79.5689 184.953 78.1049Z" fill="url(#paint5_linear_2448_370)"/>
<path fill-rule="evenodd" clip-rule="evenodd" d="M146.763 127.778C145.838 129.563 144.807 131.283 143.676 132.929C144.476 131.07 145.518 129.34 146.763 127.778ZM143.829 78.1049C144.822 79.5689 145.738 81.09 146.57 82.6623C145.486 81.2647 144.564 79.7364 143.829 78.1049Z" fill="url(#paint6_linear_2448_370)"/>
<path d="M143.676 132.929C144.476 131.07 145.518 129.34 146.763 127.778C150.894 122.598 157.255 119.279 164.391 119.279C171.526 119.279 177.888 122.598 182.019 127.778C183.263 129.34 184.306 131.07 185.106 132.929C193.866 145.69 208.549 154.057 225.184 154.057C252.024 154.057 273.782 132.275 273.782 105.405C273.782 78.5352 252.024 56.7529 225.184 56.7529C208.452 56.7529 193.694 65.2186 184.953 78.1049C184.218 79.7364 183.295 81.2647 182.212 82.6623C178.088 87.9831 171.639 91.4075 164.391 91.4075C157.143 91.4075 150.694 87.9831 146.57 82.6623C145.486 81.2647 144.564 79.7364 143.829 78.1049C135.087 65.2186 120.33 56.7529 103.598 56.7529C76.7579 56.7529 55 78.5352 55 105.405C55 132.275 76.7579 154.057 103.598 154.057C120.233 154.057 134.916 145.69 143.676 132.929Z" fill="url(#paint7_linear_2448_370)"/>
<ellipse cx="226.485" cy="105.405" rx="48.5976" ry="48.6521" fill="#00D886"/>
<ellipse cx="103.598" cy="226.429" rx="48.5976" ry="48.6521" fill="#FF004C"/>
<path d="M389.175 110.477V123.696H347.243V152.835H379.936V166.054H347.243V219.275H331.039V110.477H389.175Z" fill="white"/>
<path d="M424.66 140.955V219.275H408.456V140.955H424.66Z" fill="white"/>
<path d="M466.403 140.955V219.275H450.199V140.955H466.403Z" fill="white"/>
<path d="M522.928 180.186L559.032 219.275H537.142L508.145 185.588V219.275H491.941V114.091H508.145V175.211L536.574 140.955H559.032L522.928 180.186Z" fill="white"/>
<path d="M569.509 179.76C569.509 171.895 571.12 164.93 574.342 158.865C577.659 152.8 582.112 148.11 587.703 144.793C593.389 141.382 599.643 139.676 606.466 139.676C612.625 139.676 617.979 140.908 622.528 143.372C627.171 145.741 630.867 148.726 633.615 152.327V140.955H649.961V219.275H633.615V207.619C630.867 211.315 627.124 214.395 622.386 216.858C617.648 219.322 612.246 220.554 606.182 220.554C599.454 220.554 593.294 218.848 587.703 215.437C582.112 211.931 577.659 207.098 574.342 200.939C571.12 194.685 569.509 187.625 569.509 179.76ZM633.615 180.044C633.615 174.643 632.478 169.952 630.203 165.972C628.024 161.992 625.134 158.96 621.533 156.875C617.932 154.79 614.047 153.748 609.877 153.748C605.708 153.748 601.823 154.79 598.222 156.875C594.621 158.865 591.683 161.85 589.409 165.83C587.229 169.715 586.14 174.358 586.14 179.76C586.14 185.161 587.229 189.899 589.409 193.974C591.683 198.049 594.621 201.176 598.222 203.355C601.917 205.44 605.803 206.482 609.877 206.482C614.047 206.482 617.932 205.44 621.533 203.355C625.134 201.27 628.024 198.238 630.203 194.258C632.478 190.183 633.615 185.445 633.615 180.044Z" fill="white"/>
<path d="M409.308 127.594C411.298 129.584 413.762 130.579 416.7 130.579C419.542 130.579 421.959 129.584 423.949 127.594C425.939 125.604 426.934 123.141 426.934 120.203C426.934 117.265 425.939 114.802 423.949 112.812C421.959 110.822 419.542 109.827 416.7 109.827C413.762 109.827 411.298 110.822 409.308 112.812C407.318 114.802 406.323 117.265 406.323 120.203C406.323 123.141 407.318 125.604 409.308 127.594Z" fill="#FF004C"/>
<path d="M451.051 127.594C453.041 129.584 455.505 130.579 458.443 130.579C461.286 130.579 463.702 129.584 465.692 127.594C467.682 125.604 468.677 123.141 468.677 120.203C468.677 117.265 467.682 114.802 465.692 112.812C463.702 110.822 461.286 109.827 458.443 109.827C455.505 109.827 453.041 110.822 451.051 112.812C449.061 114.802 448.066 117.265 448.066 120.203C448.066 123.141 449.061 125.604 451.051 127.594Z" fill="#FFAB00"/>
<path d="M712.425 122.198V110.187H796.285V122.198H761.125V222H747.585V122.198H712.425Z" fill="white"/>
<path d="M838.433 223.747C830.353 223.747 823.383 221.964 817.523 218.397C811.699 214.793 807.204 209.771 804.037 203.328C800.907 196.849 799.342 189.315 799.342 180.725C799.342 172.136 800.907 164.565 804.037 158.013C807.204 151.425 811.608 146.293 817.25 142.617C822.928 138.905 829.552 137.048 837.123 137.048C841.491 137.048 845.804 137.776 850.062 139.232C854.321 140.688 858.197 143.054 861.691 146.33C865.185 149.569 867.97 153.864 870.044 159.214C872.119 164.565 873.156 171.153 873.156 178.978V184.438H808.514V173.3H860.053C860.053 168.569 859.107 164.346 857.214 160.634C855.358 156.921 852.701 153.991 849.243 151.844C845.822 149.696 841.782 148.623 837.123 148.623C831.991 148.623 827.55 149.897 823.801 152.444C820.089 154.956 817.232 158.232 815.23 162.272C813.228 166.312 812.227 170.643 812.227 175.266V182.691C812.227 189.024 813.319 194.393 815.503 198.797C817.723 203.164 820.799 206.495 824.729 208.788C828.66 211.045 833.228 212.173 838.433 212.173C841.818 212.173 844.876 211.7 847.605 210.753C850.372 209.771 852.756 208.315 854.757 206.386C856.759 204.42 858.306 201.982 859.398 199.07L871.846 202.564C870.536 206.786 868.334 210.499 865.24 213.702C862.146 216.868 858.324 219.343 853.775 221.127C849.225 222.874 844.111 223.747 838.433 223.747Z" fill="white"/>
<path d="M926.825 223.747C918.963 223.747 912.193 221.891 906.515 218.178C900.837 214.466 896.469 209.352 893.412 202.837C890.354 196.322 888.826 188.878 888.826 180.507C888.826 171.99 890.391 164.474 893.521 157.959C896.687 151.407 901.092 146.293 906.733 142.617C912.411 138.905 919.036 137.048 926.606 137.048C932.503 137.048 937.817 138.14 942.548 140.324C947.28 142.508 951.156 145.565 954.177 149.496C957.198 153.427 959.073 158.013 959.801 163.255H946.916C945.933 159.433 943.749 156.048 940.365 153.1C937.016 150.115 932.503 148.623 926.825 148.623C921.802 148.623 917.398 149.933 913.612 152.554C909.863 155.138 906.933 158.796 904.822 163.528C902.748 168.223 901.71 173.737 901.71 180.07C901.71 186.549 902.729 192.191 904.768 196.995C906.842 201.8 909.754 205.53 913.503 208.187C917.288 210.844 921.729 212.173 926.825 212.173C930.173 212.173 933.212 211.59 935.942 210.426C938.672 209.261 940.983 207.587 942.876 205.403C944.769 203.219 946.115 200.598 946.916 197.541H959.801C959.073 202.491 957.271 206.95 954.396 210.917C951.557 214.848 947.79 217.978 943.094 220.308C938.435 222.601 933.012 223.747 926.825 223.747Z" fill="white"/>
<path d="M991.521 171.553V222H978.637V110.187H991.521V151.243H992.613C994.579 146.912 997.527 143.472 1001.46 140.925C1005.43 138.34 1010.7 137.048 1017.29 137.048C1023.01 137.048 1028.01 138.195 1032.3 140.488C1036.6 142.745 1039.93 146.22 1042.3 150.916C1044.7 155.575 1045.9 161.507 1045.9 168.714V222H1033.01V169.588C1033.01 162.927 1031.29 157.777 1027.83 154.137C1024.41 150.461 1019.66 148.623 1013.58 148.623C1009.36 148.623 1005.57 149.514 1002.22 151.298C998.91 153.081 996.289 155.684 994.36 159.105C992.468 162.527 991.521 166.676 991.521 171.553Z" fill="white"/>
<path d="M1175.61 138.14C1174.95 132.608 1172.29 128.313 1167.64 125.255C1162.98 122.198 1157.26 120.669 1150.49 120.669C1145.54 120.669 1141.21 121.47 1137.5 123.072C1133.82 124.673 1130.95 126.875 1128.87 129.678C1126.83 132.48 1125.81 135.665 1125.81 139.232C1125.81 142.217 1126.52 144.783 1127.94 146.93C1129.4 149.041 1131.26 150.807 1133.51 152.226C1135.77 153.609 1138.14 154.756 1140.61 155.666C1143.09 156.539 1145.36 157.249 1147.43 157.795L1158.79 160.852C1161.7 161.617 1164.94 162.672 1168.51 164.019C1172.11 165.366 1175.55 167.204 1178.83 169.533C1182.14 171.826 1184.87 174.774 1187.02 178.378C1189.16 181.981 1190.24 186.403 1190.24 191.645C1190.24 197.687 1188.65 203.146 1185.49 208.024C1182.36 212.901 1177.77 216.777 1171.73 219.653C1165.72 222.528 1158.43 223.966 1149.84 223.966C1141.83 223.966 1134.9 222.674 1129.04 220.089C1123.21 217.505 1118.63 213.902 1115.28 209.279C1111.97 204.657 1110.09 199.288 1109.65 193.173H1123.63C1123.99 197.395 1125.41 200.89 1127.89 203.656C1130.4 206.386 1133.57 208.424 1137.39 209.771C1141.25 211.081 1145.4 211.736 1149.84 211.736C1155.01 211.736 1159.65 210.899 1163.76 209.225C1167.87 207.514 1171.13 205.148 1173.53 202.127C1175.93 199.07 1177.14 195.503 1177.14 191.426C1177.14 187.714 1176.1 184.693 1174.02 182.363C1171.95 180.034 1169.22 178.141 1165.83 176.685C1162.45 175.229 1158.79 173.955 1154.86 172.864L1141.1 168.933C1132.37 166.421 1125.45 162.836 1120.35 158.177C1115.26 153.518 1112.71 147.422 1112.71 139.887C1112.71 133.627 1114.4 128.167 1117.79 123.508C1121.21 118.813 1125.8 115.173 1131.55 112.589C1137.33 109.969 1143.8 108.658 1150.93 108.658C1158.14 108.658 1164.54 109.95 1170.15 112.535C1175.75 115.082 1180.19 118.577 1183.47 123.017C1186.78 127.458 1188.53 132.499 1188.71 138.14H1175.61Z" fill="white"/>
<path d="M1244.82 223.747C1237.25 223.747 1230.61 221.946 1224.89 218.342C1219.22 214.739 1214.77 209.698 1211.57 203.219C1208.41 196.74 1206.82 189.17 1206.82 180.507C1206.82 171.772 1208.41 164.146 1211.57 157.631C1214.77 151.116 1219.22 146.057 1224.89 142.453C1230.61 138.85 1237.25 137.048 1244.82 137.048C1252.39 137.048 1259.02 138.85 1264.69 142.453C1270.41 146.057 1274.85 151.116 1278.02 157.631C1281.22 164.146 1282.82 171.772 1282.82 180.507C1282.82 189.17 1281.22 196.74 1278.02 203.219C1274.85 209.698 1270.41 214.739 1264.69 218.342C1259.02 221.946 1252.39 223.747 1244.82 223.747ZM1244.82 212.173C1250.57 212.173 1255.3 210.699 1259.02 207.751C1262.73 204.802 1265.48 200.926 1267.26 196.122C1269.04 191.317 1269.94 186.112 1269.94 180.507C1269.94 174.902 1269.04 169.679 1267.26 164.838C1265.48 159.997 1262.73 156.084 1259.02 153.1C1255.3 150.115 1250.57 148.623 1244.82 148.623C1239.07 148.623 1234.34 150.115 1230.63 153.1C1226.91 156.084 1224.17 159.997 1222.38 164.838C1220.6 169.679 1219.71 174.902 1219.71 180.507C1219.71 186.112 1220.6 191.317 1222.38 196.122C1224.17 200.926 1226.91 204.802 1230.63 207.751C1234.34 210.699 1239.07 212.173 1244.82 212.173Z" fill="white"/>
<path d="M1315.37 110.187V222H1302.49V110.187H1315.37Z" fill="white"/>
<path d="M1391.82 187.714V138.14H1404.71V222H1391.82V207.805H1390.95C1388.98 212.064 1385.93 215.685 1381.78 218.67C1377.63 221.618 1372.39 223.092 1366.05 223.092C1360.81 223.092 1356.15 221.946 1352.08 219.653C1348 217.323 1344.8 213.829 1342.47 209.17C1340.14 204.475 1338.97 198.56 1338.97 191.426V138.14H1351.86V190.553C1351.86 196.668 1353.57 201.545 1356.99 205.185C1360.45 208.824 1364.85 210.644 1370.2 210.644C1373.4 210.644 1376.66 209.825 1379.97 208.187C1383.32 206.549 1386.13 204.038 1388.38 200.653C1390.68 197.268 1391.82 192.955 1391.82 187.714Z" fill="white"/>
<path d="M1464.78 138.14V149.059H1421.32V138.14H1464.78ZM1433.98 118.049H1446.87V197.978C1446.87 201.618 1447.4 204.347 1448.45 206.167C1449.54 207.951 1450.93 209.152 1452.6 209.771C1454.31 210.353 1456.11 210.644 1458.01 210.644C1459.43 210.644 1460.59 210.571 1461.5 210.426C1462.41 210.244 1463.14 210.098 1463.68 209.989L1466.3 221.563C1465.43 221.891 1464.21 222.219 1462.65 222.546C1461.08 222.91 1459.1 223.092 1456.7 223.092C1453.06 223.092 1449.49 222.31 1445.99 220.744C1442.54 219.179 1439.66 216.795 1437.37 213.592C1435.11 210.389 1433.98 206.349 1433.98 201.472V118.049Z" fill="white"/>
<path d="M1484.16 222V138.14H1497.04V222H1484.16Z" fill="white"/>
<path d="M1554.71 223.747C1547.14 223.747 1540.5 221.946 1534.78 218.342C1529.1 214.739 1524.66 209.698 1521.46 203.219C1518.29 196.74 1516.71 189.17 1516.71 180.507C1516.71 171.772 1518.29 164.146 1521.46 157.631C1524.66 151.116 1529.1 146.057 1534.78 142.453C1540.5 138.85 1547.14 137.048 1554.71 137.048C1562.28 137.048 1568.9 138.85 1574.58 142.453C1580.3 146.057 1584.74 151.116 1587.9 157.631C1591.11 164.146 1592.71 171.772 1592.71 180.507C1592.71 189.17 1591.11 196.74 1587.9 203.219C1584.74 209.698 1580.3 214.739 1574.58 218.342C1568.9 221.946 1562.28 223.747 1554.71 223.747ZM1554.71 212.173C1560.46 212.173 1565.19 210.699 1568.9 207.751C1572.62 204.802 1575.37 200.926 1577.15 196.122C1578.93 191.317 1579.82 186.112 1579.82 180.507C1579.82 174.902 1578.93 169.679 1577.15 164.838C1575.37 159.997 1572.62 156.084 1568.9 153.1C1565.19 150.115 1560.46 148.623 1554.71 148.623C1548.96 148.623 1544.23 150.115 1540.51 153.1C1536.8 156.084 1534.05 159.997 1532.27 164.838C1530.49 169.679 1529.6 174.902 1529.6 180.507C1529.6 186.112 1530.49 191.317 1532.27 196.122C1534.05 200.926 1536.8 204.802 1540.51 207.751C1544.23 210.699 1548.96 212.173 1554.71 212.173Z" fill="white"/>
<path d="M1625.26 171.553V222H1612.38V138.14H1624.83V151.243H1625.92C1627.88 146.985 1630.87 143.563 1634.87 140.979C1638.87 138.359 1644.04 137.048 1650.38 137.048C1656.05 137.048 1661.02 138.213 1665.28 140.542C1669.54 142.836 1672.85 146.33 1675.22 151.025C1677.58 155.684 1678.77 161.58 1678.77 168.714V222H1665.88V169.588C1665.88 163 1664.17 157.868 1660.75 154.192C1657.33 150.479 1652.63 148.623 1646.66 148.623C1642.55 148.623 1638.87 149.514 1635.64 151.298C1632.43 153.081 1629.9 155.684 1628.05 159.105C1626.19 162.527 1625.26 166.676 1625.26 171.553Z" fill="white"/>
<path d="M1761.71 156.921L1750.14 160.197C1749.41 158.268 1748.34 156.394 1746.92 154.574C1745.53 152.717 1743.64 151.189 1741.24 149.988C1738.84 148.787 1735.76 148.186 1732.01 148.186C1726.88 148.186 1722.6 149.369 1719.18 151.735C1715.8 154.064 1714.1 157.031 1714.1 160.634C1714.1 163.837 1715.27 166.367 1717.6 168.223C1719.93 170.079 1723.57 171.626 1728.52 172.864L1740.97 175.921C1748.46 177.741 1754.05 180.525 1757.73 184.274C1761.4 187.987 1763.24 192.773 1763.24 198.633C1763.24 203.437 1761.86 207.732 1759.09 211.518C1756.36 215.303 1752.54 218.288 1747.63 220.472C1742.71 222.655 1737 223.747 1730.48 223.747C1721.93 223.747 1714.85 221.891 1709.24 218.178C1703.64 214.466 1700.09 209.043 1698.6 201.909L1710.83 198.851C1711.99 203.365 1714.19 206.75 1717.43 209.006C1720.71 211.263 1724.99 212.391 1730.26 212.391C1736.27 212.391 1741.04 211.117 1744.57 208.57C1748.14 205.985 1749.92 202.891 1749.92 199.288C1749.92 196.376 1748.9 193.938 1746.86 191.972C1744.82 189.97 1741.69 188.478 1737.47 187.495L1723.49 184.22C1715.81 182.4 1710.17 179.579 1706.57 175.757C1703 171.899 1701.22 167.076 1701.22 161.289C1701.22 156.557 1702.55 152.372 1705.2 148.732C1707.9 145.092 1711.56 142.235 1716.18 140.16C1720.84 138.086 1726.11 137.048 1732.01 137.048C1740.31 137.048 1746.83 138.868 1751.56 142.508C1756.32 146.148 1759.71 150.952 1761.71 156.921Z" fill="white"/>
<path d="M1484.21 121.597C1486.03 123.308 1488.2 124.163 1490.71 124.163C1493.22 124.163 1495.37 123.308 1497.15 121.597C1498.97 119.886 1499.88 117.83 1499.88 115.428C1499.88 113.026 1498.97 110.969 1497.15 109.258C1495.37 107.548 1493.22 106.692 1490.71 106.692C1488.2 106.692 1486.03 107.548 1484.21 109.258C1482.43 110.969 1481.54 113.026 1481.54 115.428C1481.54 117.83 1482.43 119.886 1484.21 121.597Z" fill="#FF004C"/>
<defs>
<linearGradient id="paint0_linear_2448_370" x1="103.598" y1="56.7529" x2="103.598" y2="275.78" gradientUnits="userSpaceOnUse">
<stop offset="0.447115" stop-color="#007DFE"/>
<stop offset="0.557692" stop-color="#FF004C"/>
</linearGradient>
<linearGradient id="paint1_linear_2448_370" x1="103.598" y1="56.7529" x2="103.598" y2="275.78" gradientUnits="userSpaceOnUse">
<stop offset="0.447115" stop-color="#007DFE"/>
<stop offset="0.557692" stop-color="#FF004C"/>
</linearGradient>
<linearGradient id="paint2_linear_2448_370" x1="103.598" y1="56.7529" x2="103.598" y2="275.78" gradientUnits="userSpaceOnUse">
<stop offset="0.447115" stop-color="#007DFE"/>
<stop offset="0.557692" stop-color="#FF004C"/>
</linearGradient>
<linearGradient id="paint3_linear_2448_370" x1="103.598" y1="56.7529" x2="103.598" y2="275.78" gradientUnits="userSpaceOnUse">
<stop offset="0.447115" stop-color="#007DFE"/>
<stop offset="0.557692" stop-color="#FF004C"/>
</linearGradient>
<linearGradient id="paint4_linear_2448_370" x1="55" y1="105.405" x2="273.782" y2="105.405" gradientUnits="userSpaceOnUse">
<stop offset="0.432692" stop-color="#007DFE"/>
<stop offset="0.567308" stop-color="#00D886"/>
</linearGradient>
<linearGradient id="paint5_linear_2448_370" x1="55" y1="105.405" x2="273.782" y2="105.405" gradientUnits="userSpaceOnUse">
<stop offset="0.432692" stop-color="#007DFE"/>
<stop offset="0.567308" stop-color="#00D886"/>
</linearGradient>
<linearGradient id="paint6_linear_2448_370" x1="55" y1="105.405" x2="273.782" y2="105.405" gradientUnits="userSpaceOnUse">
<stop offset="0.432692" stop-color="#007DFE"/>
<stop offset="0.567308" stop-color="#00D886"/>
</linearGradient>
<linearGradient id="paint7_linear_2448_370" x1="55" y1="105.405" x2="273.782" y2="105.405" gradientUnits="userSpaceOnUse">
<stop offset="0.432692" stop-color="#007DFE"/>
<stop offset="0.567308" stop-color="#00D886"/>
</linearGradient>
</defs>
</svg>
