<svg width="285" height="54" viewBox="0 0 285 54" fill="none" xmlns="http://www.w3.org/2000/svg">
<path d="M68.415 39.9811V13.9917H78.7661C81.0995 13.9917 82.8867 14.6619 84.1279 16.0023C85.3938 17.3179 86.0268 19.13 86.0268 21.4385C86.0268 23.747 85.3938 25.5715 84.1279 26.9119C82.8867 28.2276 81.0995 28.8854 78.7661 28.8854H71.5427V39.9811H68.415ZM71.5427 26.13H78.7661C80.0073 26.13 80.9629 25.8073 81.6332 25.1619C82.3282 24.5165 82.6757 23.5981 82.6757 22.4066V20.4704C82.6757 19.2789 82.3282 18.3605 81.6332 17.7151C80.9629 17.0697 80.0073 16.747 78.7661 16.747H71.5427V26.13ZM90.334 39.9811V20.7683H93.3128V24.3056H93.4989C93.8465 23.3871 94.467 22.568 95.3606 21.8481C96.2543 21.1282 97.483 20.7683 99.0468 20.7683H100.201V23.747H98.4511C96.8376 23.747 95.5716 24.0573 94.6532 24.6779C93.7596 25.2736 93.3128 26.0307 93.3128 26.9492V39.9811H90.334ZM117.823 39.9811C116.706 39.9811 115.899 39.6833 115.403 39.0875C114.931 38.4918 114.633 37.7471 114.509 36.8535H114.323C113.901 38.045 113.206 38.9386 112.238 39.5343C111.27 40.1301 110.116 40.428 108.775 40.428C106.74 40.428 105.151 39.9067 104.009 38.8641C102.892 37.8216 102.334 36.4067 102.334 34.6194C102.334 32.8074 102.992 31.4173 104.307 30.4492C105.648 29.4811 107.72 28.9971 110.525 28.9971H114.323V27.0981C114.323 25.7329 113.951 24.6903 113.206 23.9704C112.462 23.2506 111.32 22.8907 109.781 22.8907C108.614 22.8907 107.633 23.1513 106.839 23.6726C106.07 24.1939 105.424 24.8889 104.903 25.7577L103.116 24.0822C103.637 23.0396 104.469 22.1584 105.61 21.4385C106.752 20.6938 108.192 20.3215 109.93 20.3215C112.263 20.3215 114.075 20.8924 115.366 22.0343C116.657 23.1761 117.302 24.7648 117.302 26.8002V37.3748H119.499V39.9811H117.823ZM109.259 37.896C110.004 37.896 110.687 37.8092 111.307 37.6354C111.928 37.4616 112.462 37.2134 112.908 36.8907C113.355 36.568 113.703 36.1957 113.951 35.7737C114.199 35.3517 114.323 34.8925 114.323 34.396V31.2311H110.376C108.664 31.2311 107.41 31.4793 106.616 31.9758C105.846 32.4723 105.461 33.1921 105.461 34.1354V34.9173C105.461 35.8606 105.797 36.5928 106.467 37.1141C107.162 37.6354 108.093 37.896 109.259 37.896ZM130.899 40.428C129.559 40.428 128.355 40.1921 127.287 39.7205C126.22 39.2489 125.314 38.5787 124.569 37.7099C123.849 36.8411 123.291 35.7861 122.894 34.545C122.521 33.3038 122.335 31.9137 122.335 30.3747C122.335 28.8357 122.521 27.4456 122.894 26.2045C123.291 24.9634 123.849 23.9084 124.569 23.0396C125.314 22.1708 126.22 21.5006 127.287 21.0289C128.355 20.5573 129.559 20.3215 130.899 20.3215C132.81 20.3215 134.337 20.7435 135.479 21.5875C136.646 22.4066 137.514 23.4864 138.085 24.8268L135.591 26.0928C135.243 25.0999 134.672 24.3304 133.878 23.7843C133.084 23.2382 132.091 22.9651 130.899 22.9651C130.005 22.9651 129.224 23.1141 128.553 23.4119C127.883 23.685 127.325 24.0822 126.878 24.6034C126.431 25.0999 126.096 25.708 125.872 26.4279C125.649 27.1229 125.537 27.8924 125.537 28.7364V32.013C125.537 33.701 125.984 35.0911 126.878 36.1833C127.796 37.2506 129.137 37.7843 130.899 37.7843C133.307 37.7843 135.045 36.6673 136.112 34.4333L138.271 35.8854C137.651 37.2755 136.72 38.3801 135.479 39.1992C134.263 40.0184 132.736 40.428 130.899 40.428ZM146.721 39.9811C145.678 39.9811 144.884 39.6957 144.338 39.1248C143.817 38.529 143.556 37.7595 143.556 36.8162V23.3747H140.391V20.7683H142.178C142.824 20.7683 143.258 20.6442 143.482 20.396C143.73 20.1229 143.854 19.6637 143.854 19.0183V15.4438H146.535V20.7683H150.742V23.3747H146.535V37.3748H150.444V39.9811H146.721ZM162.645 40.428C161.355 40.428 160.175 40.1921 159.108 39.7205C158.041 39.2489 157.122 38.5787 156.353 37.7099C155.608 36.8162 155.025 35.7613 154.603 34.545C154.181 33.3038 153.97 31.9137 153.97 30.3747C153.97 28.8605 154.181 27.4829 154.603 26.2417C155.025 25.0006 155.608 23.9456 156.353 23.0768C157.122 22.1832 158.041 21.5006 159.108 21.0289C160.175 20.5573 161.355 20.3215 162.645 20.3215C163.936 20.3215 165.103 20.5573 166.145 21.0289C167.213 21.5006 168.131 22.1832 168.901 23.0768C169.67 23.9456 170.266 25.0006 170.688 26.2417C171.11 27.4829 171.321 28.8605 171.321 30.3747C171.321 31.9137 171.11 33.3038 170.688 34.545C170.266 35.7613 169.67 36.8162 168.901 37.7099C168.131 38.5787 167.213 39.2489 166.145 39.7205C165.103 40.1921 163.936 40.428 162.645 40.428ZM162.645 37.7843C164.259 37.7843 165.574 37.2879 166.592 36.295C167.61 35.3021 168.119 33.7879 168.119 31.7524V28.9971C168.119 26.9616 167.61 25.4474 166.592 24.4545C165.574 23.4616 164.259 22.9651 162.645 22.9651C161.032 22.9651 159.716 23.4616 158.698 24.4545C157.681 25.4474 157.172 26.9616 157.172 28.9971V31.7524C157.172 33.7879 157.681 35.3021 158.698 36.295C159.716 37.2879 161.032 37.7843 162.645 37.7843ZM185.677 40.428C182.376 40.428 179.807 39.3109 177.97 37.0769C176.133 34.818 175.214 31.5042 175.214 27.1354C175.214 22.7665 176.133 19.4155 177.97 17.0821C179.807 14.724 182.376 13.5449 185.677 13.5449C187.862 13.5449 189.686 14.0413 191.151 15.0342C192.64 16.0272 193.794 17.4296 194.613 19.2417L192.082 20.7683C191.56 19.4279 190.766 18.3605 189.699 17.5662C188.631 16.747 187.291 16.3374 185.677 16.3374C184.56 16.3374 183.555 16.5484 182.661 16.9704C181.793 17.3924 181.048 18.0006 180.427 18.7949C179.832 19.5644 179.372 20.4953 179.05 21.5875C178.727 22.6548 178.566 23.8587 178.566 25.1992V29.0715C178.566 31.7524 179.186 33.8499 180.427 35.3641C181.668 36.8783 183.418 37.6354 185.677 37.6354C187.34 37.6354 188.73 37.2134 189.848 36.3694C190.965 35.5006 191.784 34.3588 192.305 32.9439L194.8 34.5077C193.98 36.3446 192.801 37.7967 191.262 38.8641C189.723 39.9067 187.862 40.428 185.677 40.428ZM206.606 40.428C205.316 40.428 204.137 40.1921 203.069 39.7205C202.002 39.2489 201.083 38.5787 200.314 37.7099C199.569 36.8162 198.986 35.7613 198.564 34.545C198.142 33.3038 197.931 31.9137 197.931 30.3747C197.931 28.8605 198.142 27.4829 198.564 26.2417C198.986 25.0006 199.569 23.9456 200.314 23.0768C201.083 22.1832 202.002 21.5006 203.069 21.0289C204.137 20.5573 205.316 20.3215 206.606 20.3215C207.897 20.3215 209.064 20.5573 210.106 21.0289C211.174 21.5006 212.092 22.1832 212.862 23.0768C213.631 23.9456 214.227 25.0006 214.649 26.2417C215.071 27.4829 215.282 28.8605 215.282 30.3747C215.282 31.9137 215.071 33.3038 214.649 34.545C214.227 35.7613 213.631 36.8162 212.862 37.7099C212.092 38.5787 211.174 39.2489 210.106 39.7205C209.064 40.1921 207.897 40.428 206.606 40.428ZM206.606 37.7843C208.22 37.7843 209.535 37.2879 210.553 36.295C211.571 35.3021 212.08 33.7879 212.08 31.7524V28.9971C212.08 26.9616 211.571 25.4474 210.553 24.4545C209.535 23.4616 208.22 22.9651 206.606 22.9651C204.993 22.9651 203.677 23.4616 202.66 24.4545C201.642 25.4474 201.133 26.9616 201.133 28.9971V31.7524C201.133 33.7879 201.642 35.3021 202.66 36.295C203.677 37.2879 204.993 37.7843 206.606 37.7843ZM220.181 39.9811V20.7683H223.16V24.3056H223.346C223.693 23.3871 224.314 22.568 225.207 21.8481C226.101 21.1282 227.33 20.7683 228.894 20.7683H230.048V23.747H228.298C226.684 23.747 225.418 24.0573 224.5 24.6779C223.606 25.2736 223.16 26.0307 223.16 26.9492V39.9811H220.181ZM240.894 40.428C239.579 40.428 238.387 40.1921 237.32 39.7205C236.277 39.2489 235.371 38.5787 234.602 37.7099C233.857 36.8162 233.274 35.7613 232.852 34.545C232.455 33.3038 232.256 31.9137 232.256 30.3747C232.256 28.8605 232.455 27.4829 232.852 26.2417C233.274 25.0006 233.857 23.9456 234.602 23.0768C235.371 22.1832 236.277 21.5006 237.32 21.0289C238.387 20.5573 239.579 20.3215 240.894 20.3215C242.185 20.3215 243.339 20.5573 244.357 21.0289C245.375 21.5006 246.244 22.1584 246.964 23.0024C247.683 23.8215 248.23 24.802 248.602 25.9439C248.999 27.0857 249.198 28.3393 249.198 29.7045V31.1194H235.384V32.013C235.384 32.8322 235.508 33.6017 235.756 34.3216C236.029 35.0166 236.401 35.6247 236.873 36.146C237.37 36.6673 237.965 37.0769 238.66 37.3748C239.38 37.6726 240.187 37.8216 241.081 37.8216C242.297 37.8216 243.352 37.5361 244.245 36.9652C245.164 36.3943 245.871 35.5751 246.368 34.5077L248.49 36.0343C247.87 37.3499 246.902 38.4173 245.586 39.2365C244.27 40.0308 242.706 40.428 240.894 40.428ZM240.894 22.8162C240.075 22.8162 239.331 22.9651 238.66 23.263C237.99 23.536 237.407 23.9332 236.91 24.4545C236.439 24.9758 236.066 25.5963 235.793 26.3162C235.52 27.0112 235.384 27.7807 235.384 28.6247V28.8854H245.995V28.4758C245.995 26.763 245.524 25.3978 244.581 24.38C243.662 23.3375 242.433 22.8162 240.894 22.8162Z" fill="black"/>
<path d="M46.1846 0.962891H6.81896C3.4019 0.962891 0.631836 3.73296 0.631836 7.15001V46.5157C0.631836 49.9327 3.4019 52.7028 6.81896 52.7028H46.1846C49.6017 52.7028 52.3717 49.9327 52.3717 46.5157V7.15001C52.3717 3.73296 49.6017 0.962891 46.1846 0.962891Z" fill="#F9623A"/>
<mask id="mask0_571_5483" style="mask-type:luminance" maskUnits="userSpaceOnUse" x="13" y="14" width="27" height="28">
<path d="M39.843 14.5557H13.1611V41.3665H39.843V14.5557Z" fill="white"/>
</mask>
<g mask="url(#mask0_571_5483)">
<path fill-rule="evenodd" clip-rule="evenodd" d="M14.248 28.0554V15.6426H38.8687V28.0554C38.8687 30.2978 38.2683 32.4011 37.2197 34.2129C35.0899 37.8928 31.1111 40.3704 26.5584 40.3704C22.0057 40.3704 18.0269 37.8928 15.8971 34.2129C14.8485 32.4011 14.248 30.2978 14.248 28.0554Z" stroke="white" stroke-width="1.80458" stroke-miterlimit="1.5" stroke-linecap="round"/>
<path fill-rule="evenodd" clip-rule="evenodd" d="M23.1933 23.7266H22.1836V22.8076H30.9341V23.7266H29.9244V40.0153H28.3564V23.7266H27.3357V40.0153H25.7678V23.7266H24.7612V40.0153H23.1933V23.7266Z" fill="white" stroke="white" stroke-width="0.134427" stroke-miterlimit="1.5" stroke-linecap="round"/>
<path fill-rule="evenodd" clip-rule="evenodd" d="M21.498 21.7617C21.4994 21.7827 21.5 21.8038 21.5 21.8251C21.5 22.3673 21.06 22.8074 20.5181 22.8074C19.9761 22.8074 19.5361 22.3673 19.5361 21.8251C19.5361 21.2829 19.9761 20.8428 20.5181 20.8428H32.5978C32.6268 20.8428 32.6556 20.844 32.6839 20.8465C33.1856 20.8902 33.5797 21.312 33.5797 21.8251C33.5797 22.3673 33.1397 22.8074 32.5978 22.8074C32.0558 22.8074 31.6158 22.3673 31.6158 21.8251C31.6158 21.8038 31.6165 21.7827 31.6178 21.7617H21.498Z" fill="white" stroke="white" stroke-width="0.134427" stroke-miterlimit="1.5" stroke-linecap="round"/>
</g>
</svg>
