<svg width="285" height="54" viewBox="0 0 285 54" fill="none" xmlns="http://www.w3.org/2000/svg">
<path d="M68.4149 39.9814V13.992H78.766C81.0994 13.992 82.8866 14.6622 84.1278 16.0026C85.3937 17.3182 86.0267 19.1303 86.0267 21.4388C86.0267 23.7473 85.3937 25.5718 84.1278 26.9122C82.8866 28.2279 81.0994 28.8857 78.766 28.8857H71.5426V39.9814H68.4149ZM71.5426 26.1303H78.766C80.0072 26.1303 80.9628 25.8076 81.6331 25.1622C82.3281 24.5168 82.6756 23.5984 82.6756 22.4069V20.4707C82.6756 19.2792 82.3281 18.3608 81.6331 17.7154C80.9628 17.07 80.0072 16.7473 78.766 16.7473H71.5426V26.1303ZM90.3339 39.9814V20.7686H93.3127V24.3059H93.4988C93.8464 23.3874 94.4669 22.5683 95.3605 21.8484C96.2542 21.1285 97.4829 20.7686 99.0467 20.7686H100.201V23.7473H98.451C96.8375 23.7473 95.5715 24.0576 94.6531 24.6782C93.7595 25.2739 93.3127 26.031 93.3127 26.9495V39.9814H90.3339ZM117.823 39.9814C116.706 39.9814 115.899 39.6836 115.403 39.0878C114.931 38.4921 114.633 37.7474 114.509 36.8538H114.323C113.901 38.0453 113.206 38.9389 112.238 39.5346C111.27 40.1304 110.116 40.4283 108.775 40.4283C106.74 40.4283 105.151 39.907 104.009 38.8644C102.892 37.8219 102.334 36.407 102.334 34.6197C102.334 32.8077 102.992 31.4176 104.307 30.4495C105.648 29.4814 107.72 28.9974 110.525 28.9974H114.323V27.0984C114.323 25.7332 113.951 24.6906 113.206 23.9707C112.462 23.2509 111.32 22.891 109.781 22.891C108.614 22.891 107.633 23.1516 106.839 23.6729C106.07 24.1942 105.424 24.8892 104.903 25.758L103.116 24.0825C103.637 23.0399 104.469 22.1587 105.61 21.4388C106.752 20.6941 108.192 20.3218 109.93 20.3218C112.263 20.3218 114.075 20.8927 115.366 22.0346C116.657 23.1764 117.302 24.7651 117.302 26.8005V37.3751H119.499V39.9814H117.823ZM109.259 37.8963C110.004 37.8963 110.687 37.8095 111.307 37.6357C111.928 37.4619 112.462 37.2137 112.908 36.891C113.355 36.5683 113.703 36.196 113.951 35.774C114.199 35.352 114.323 34.8928 114.323 34.3963V31.2314H110.376C108.664 31.2314 107.41 31.4796 106.616 31.9761C105.846 32.4726 105.461 33.1924 105.461 34.1357V34.9176C105.461 35.8609 105.797 36.5931 106.467 37.1144C107.162 37.6357 108.093 37.8963 109.259 37.8963ZM130.899 40.4283C129.559 40.4283 128.355 40.1924 127.287 39.7208C126.22 39.2492 125.314 38.579 124.569 37.7102C123.849 36.8414 123.291 35.7864 122.894 34.5453C122.521 33.3041 122.335 31.914 122.335 30.375C122.335 28.836 122.521 27.4459 122.894 26.2048C123.291 24.9637 123.849 23.9087 124.569 23.0399C125.314 22.1711 126.22 21.5009 127.287 21.0292C128.355 20.5576 129.559 20.3218 130.899 20.3218C132.81 20.3218 134.337 20.7438 135.479 21.5878C136.646 22.4069 137.514 23.4867 138.085 24.8271L135.591 26.0931C135.243 25.1002 134.672 24.3307 133.878 23.7846C133.084 23.2385 132.091 22.9654 130.899 22.9654C130.005 22.9654 129.224 23.1144 128.553 23.4122C127.883 23.6853 127.325 24.0825 126.878 24.6037C126.431 25.1002 126.096 25.7083 125.872 26.4282C125.649 27.1232 125.537 27.8927 125.537 28.7367V32.0133C125.537 33.7013 125.984 35.0914 126.878 36.1836C127.796 37.2509 129.137 37.7846 130.899 37.7846C133.307 37.7846 135.045 36.6676 136.112 34.4336L138.271 35.8857C137.651 37.2758 136.72 38.3804 135.479 39.1995C134.263 40.0187 132.736 40.4283 130.899 40.4283ZM146.721 39.9814C145.678 39.9814 144.884 39.696 144.338 39.1251C143.817 38.5293 143.556 37.7598 143.556 36.8165V23.375H140.391V20.7686H142.178C142.824 20.7686 143.258 20.6445 143.482 20.3963C143.73 20.1232 143.854 19.664 143.854 19.0186V15.4441H146.535V20.7686H150.742V23.375H146.535V37.3751H150.444V39.9814H146.721ZM162.645 40.4283C161.355 40.4283 160.175 40.1924 159.108 39.7208C158.041 39.2492 157.122 38.579 156.353 37.7102C155.608 36.8165 155.025 35.7616 154.603 34.5453C154.181 33.3041 153.97 31.914 153.97 30.375C153.97 28.8608 154.181 27.4832 154.603 26.242C155.025 25.0009 155.608 23.9459 156.353 23.0771C157.122 22.1835 158.041 21.5009 159.108 21.0292C160.175 20.5576 161.355 20.3218 162.645 20.3218C163.936 20.3218 165.103 20.5576 166.145 21.0292C167.213 21.5009 168.131 22.1835 168.901 23.0771C169.67 23.9459 170.266 25.0009 170.688 26.242C171.11 27.4832 171.321 28.8608 171.321 30.375C171.321 31.914 171.11 33.3041 170.688 34.5453C170.266 35.7616 169.67 36.8165 168.901 37.7102C168.131 38.579 167.213 39.2492 166.145 39.7208C165.103 40.1924 163.936 40.4283 162.645 40.4283ZM162.645 37.7846C164.259 37.7846 165.574 37.2882 166.592 36.2953C167.61 35.3024 168.119 33.7882 168.119 31.7527V28.9974C168.119 26.9619 167.61 25.4477 166.592 24.4548C165.574 23.4619 164.259 22.9654 162.645 22.9654C161.032 22.9654 159.716 23.4619 158.698 24.4548C157.681 25.4477 157.172 26.9619 157.172 28.9974V31.7527C157.172 33.7882 157.681 35.3024 158.698 36.2953C159.716 37.2882 161.032 37.7846 162.645 37.7846ZM185.677 40.4283C182.376 40.4283 179.807 39.3112 177.97 37.0772C176.133 34.8183 175.214 31.5045 175.214 27.1357C175.214 22.7668 176.133 19.4158 177.97 17.0824C179.807 14.7243 182.376 13.5452 185.677 13.5452C187.862 13.5452 189.686 14.0416 191.151 15.0345C192.64 16.0275 193.794 17.4299 194.613 19.242L192.082 20.7686C191.56 19.4282 190.766 18.3608 189.699 17.5665C188.631 16.7473 187.291 16.3377 185.677 16.3377C184.56 16.3377 183.555 16.5487 182.661 16.9707C181.793 17.3927 181.048 18.0009 180.427 18.7952C179.832 19.5647 179.372 20.4956 179.05 21.5878C178.727 22.6551 178.566 23.859 178.566 25.1995V29.0718C178.566 31.7527 179.186 33.8502 180.427 35.3644C181.668 36.8786 183.418 37.6357 185.677 37.6357C187.34 37.6357 188.73 37.2137 189.848 36.3697C190.965 35.5009 191.784 34.3591 192.305 32.9442L194.8 34.508C193.98 36.3449 192.801 37.797 191.262 38.8644C189.723 39.907 187.862 40.4283 185.677 40.4283ZM206.606 40.4283C205.316 40.4283 204.137 40.1924 203.069 39.7208C202.002 39.2492 201.083 38.579 200.314 37.7102C199.569 36.8165 198.986 35.7616 198.564 34.5453C198.142 33.3041 197.931 31.914 197.931 30.375C197.931 28.8608 198.142 27.4832 198.564 26.242C198.986 25.0009 199.569 23.9459 200.314 23.0771C201.083 22.1835 202.002 21.5009 203.069 21.0292C204.137 20.5576 205.316 20.3218 206.606 20.3218C207.897 20.3218 209.064 20.5576 210.106 21.0292C211.174 21.5009 212.092 22.1835 212.862 23.0771C213.631 23.9459 214.227 25.0009 214.649 26.242C215.071 27.4832 215.282 28.8608 215.282 30.375C215.282 31.914 215.071 33.3041 214.649 34.5453C214.227 35.7616 213.631 36.8165 212.862 37.7102C212.092 38.579 211.174 39.2492 210.106 39.7208C209.064 40.1924 207.897 40.4283 206.606 40.4283ZM206.606 37.7846C208.22 37.7846 209.535 37.2882 210.553 36.2953C211.571 35.3024 212.08 33.7882 212.08 31.7527V28.9974C212.08 26.9619 211.571 25.4477 210.553 24.4548C209.535 23.4619 208.22 22.9654 206.606 22.9654C204.993 22.9654 203.677 23.4619 202.66 24.4548C201.642 25.4477 201.133 26.9619 201.133 28.9974V31.7527C201.133 33.7882 201.642 35.3024 202.66 36.2953C203.677 37.2882 204.993 37.7846 206.606 37.7846ZM220.181 39.9814V20.7686H223.16V24.3059H223.346C223.693 23.3874 224.314 22.5683 225.207 21.8484C226.101 21.1285 227.33 20.7686 228.894 20.7686H230.048V23.7473H228.298C226.684 23.7473 225.418 24.0576 224.5 24.6782C223.606 25.2739 223.16 26.031 223.16 26.9495V39.9814H220.181ZM240.894 40.4283C239.579 40.4283 238.387 40.1924 237.32 39.7208C236.277 39.2492 235.371 38.579 234.602 37.7102C233.857 36.8165 233.274 35.7616 232.852 34.5453C232.455 33.3041 232.256 31.914 232.256 30.375C232.256 28.8608 232.455 27.4832 232.852 26.242C233.274 25.0009 233.857 23.9459 234.602 23.0771C235.371 22.1835 236.277 21.5009 237.32 21.0292C238.387 20.5576 239.579 20.3218 240.894 20.3218C242.185 20.3218 243.339 20.5576 244.357 21.0292C245.375 21.5009 246.244 22.1587 246.964 23.0027C247.683 23.8218 248.23 24.8023 248.602 25.9442C248.999 27.086 249.198 28.3396 249.198 29.7048V31.1197H235.384V32.0133C235.384 32.8325 235.508 33.602 235.756 34.3219C236.029 35.0169 236.401 35.625 236.873 36.1463C237.37 36.6676 237.965 37.0772 238.66 37.3751C239.38 37.6729 240.187 37.8219 241.081 37.8219C242.297 37.8219 243.352 37.5364 244.245 36.9655C245.164 36.3946 245.871 35.5754 246.368 34.508L248.49 36.0346C247.87 37.3502 246.902 38.4176 245.586 39.2368C244.27 40.0311 242.706 40.4283 240.894 40.4283ZM240.894 22.8165C240.075 22.8165 239.331 22.9654 238.66 23.2633C237.99 23.5363 237.407 23.9335 236.91 24.4548C236.439 24.9761 236.066 25.5966 235.793 26.3165C235.52 27.0115 235.384 27.781 235.384 28.625V28.8857H245.995V28.4761C245.995 26.7633 245.524 25.3981 244.581 24.3803C243.662 23.3378 242.433 22.8165 240.894 22.8165Z" fill="black"/>
<rect x="0.631836" y="0.962891" width="51.7399" height="51.7399" rx="6.18712" fill="#005B56"/>
<g clip-path="url(#clip0_378_5146)">
<path fill-rule="evenodd" clip-rule="evenodd" d="M14.248 28.0554V15.6426H38.8687V28.0554C38.8687 30.2978 38.2683 32.4011 37.2197 34.2129C35.0899 37.8928 31.1111 40.3704 26.5584 40.3704C22.0057 40.3704 18.0269 37.8928 15.8971 34.2129C14.8485 32.4011 14.248 30.2978 14.248 28.0554Z" stroke="white" stroke-width="1.80458" stroke-miterlimit="1.5" stroke-linecap="round"/>
<path fill-rule="evenodd" clip-rule="evenodd" d="M23.1933 23.7266H22.1836V22.8076H30.9341V23.7266H29.9244V40.0153H28.3564V23.7266H27.3357V40.0153H25.7678V23.7266H24.7612V40.0153H23.1933V23.7266Z" fill="white" stroke="white" stroke-width="0.134427" stroke-miterlimit="1.5" stroke-linecap="round"/>
<path fill-rule="evenodd" clip-rule="evenodd" d="M21.498 21.7617C21.4994 21.7827 21.5 21.8038 21.5 21.8251C21.5 22.3673 21.06 22.8074 20.5181 22.8074C19.9761 22.8074 19.5361 22.3673 19.5361 21.8251C19.5361 21.2829 19.9761 20.8428 20.5181 20.8428H32.5978C32.6268 20.8428 32.6556 20.844 32.6839 20.8465C33.1856 20.8902 33.5797 21.312 33.5797 21.8251C33.5797 22.3673 33.1397 22.8074 32.5978 22.8074C32.0558 22.8074 31.6158 22.3673 31.6158 21.8251C31.6158 21.8038 31.6165 21.7827 31.6178 21.7617H21.498Z" fill="white" stroke="white" stroke-width="0.134427" stroke-miterlimit="1.5" stroke-linecap="round"/>
</g>
<defs>
<clipPath id="clip0_378_5146">
<rect width="26.6819" height="26.8108" fill="white" transform="translate(13.1611 14.5557)"/>
</clipPath>
</defs>
</svg>
