<svg width="310" height="78" viewBox="0 0 310 78" fill="none" xmlns="http://www.w3.org/2000/svg">
<path d="M80.4149 51.9814V25.992H90.766C93.0994 25.992 94.8866 26.6622 96.1278 28.0026C97.3937 29.3182 98.0267 31.1303 98.0267 33.4388C98.0267 35.7473 97.3937 37.5718 96.1278 38.9122C94.8866 40.2279 93.0994 40.8857 90.766 40.8857H83.5426V51.9814H80.4149ZM83.5426 38.1303H90.766C92.0072 38.1303 92.9628 37.8076 93.6331 37.1622C94.3281 36.5168 94.6756 35.5984 94.6756 34.4069V32.4707C94.6756 31.2792 94.3281 30.3608 93.6331 29.7154C92.9628 29.07 92.0072 28.7473 90.766 28.7473H83.5426V38.1303ZM102.334 51.9814V32.7686H105.313V36.3059H105.499C105.846 35.3874 106.467 34.5683 107.361 33.8484C108.254 33.1285 109.483 32.7686 111.047 32.7686H112.201V35.7473H110.451C108.838 35.7473 107.572 36.0576 106.653 36.6782C105.759 37.2739 105.313 38.031 105.313 38.9495V51.9814H102.334ZM129.823 51.9814C128.706 51.9814 127.899 51.6836 127.403 51.0878C126.931 50.4921 126.633 49.7474 126.509 48.8538H126.323C125.901 50.0453 125.206 50.9389 124.238 51.5346C123.27 52.1304 122.116 52.4283 120.775 52.4283C118.74 52.4283 117.151 51.907 116.009 50.8644C114.892 49.8219 114.334 48.407 114.334 46.6197C114.334 44.8077 114.992 43.4176 116.307 42.4495C117.648 41.4814 119.72 40.9974 122.525 40.9974H126.323V39.0984C126.323 37.7332 125.951 36.6906 125.206 35.9707C124.462 35.2509 123.32 34.891 121.781 34.891C120.614 34.891 119.633 35.1516 118.839 35.6729C118.07 36.1942 117.424 36.8892 116.903 37.758L115.116 36.0825C115.637 35.0399 116.469 34.1587 117.61 33.4388C118.752 32.6941 120.192 32.3218 121.93 32.3218C124.263 32.3218 126.075 32.8927 127.366 34.0346C128.657 35.1764 129.302 36.7651 129.302 38.8005V49.3751H131.499V51.9814H129.823ZM121.259 49.8963C122.004 49.8963 122.687 49.8095 123.307 49.6357C123.928 49.4619 124.462 49.2137 124.908 48.891C125.355 48.5683 125.703 48.196 125.951 47.774C126.199 47.352 126.323 46.8928 126.323 46.3963V43.2314H122.376C120.664 43.2314 119.41 43.4796 118.616 43.9761C117.846 44.4726 117.461 45.1924 117.461 46.1357V46.9176C117.461 47.8609 117.797 48.5931 118.467 49.1144C119.162 49.6357 120.093 49.8963 121.259 49.8963ZM142.899 52.4283C141.559 52.4283 140.355 52.1924 139.287 51.7208C138.22 51.2492 137.314 50.579 136.569 49.7102C135.849 48.8414 135.291 47.7864 134.894 46.5453C134.521 45.3041 134.335 43.914 134.335 42.375C134.335 40.836 134.521 39.4459 134.894 38.2048C135.291 36.9637 135.849 35.9087 136.569 35.0399C137.314 34.1711 138.22 33.5009 139.287 33.0292C140.355 32.5576 141.559 32.3218 142.899 32.3218C144.81 32.3218 146.337 32.7438 147.479 33.5878C148.646 34.4069 149.514 35.4867 150.085 36.8271L147.591 38.0931C147.243 37.1002 146.672 36.3307 145.878 35.7846C145.084 35.2385 144.091 34.9654 142.899 34.9654C142.005 34.9654 141.224 35.1144 140.553 35.4122C139.883 35.6853 139.325 36.0825 138.878 36.6037C138.431 37.1002 138.096 37.7083 137.872 38.4282C137.649 39.1232 137.537 39.8927 137.537 40.7367V44.0133C137.537 45.7013 137.984 47.0914 138.878 48.1836C139.796 49.2509 141.137 49.7846 142.899 49.7846C145.307 49.7846 147.045 48.6676 148.112 46.4336L150.271 47.8857C149.651 49.2758 148.72 50.3804 147.479 51.1995C146.263 52.0187 144.736 52.4283 142.899 52.4283ZM158.721 51.9814C157.678 51.9814 156.884 51.696 156.338 51.1251C155.817 50.5293 155.556 49.7598 155.556 48.8165V35.375H152.391V32.7686H154.178C154.824 32.7686 155.258 32.6445 155.482 32.3963C155.73 32.1232 155.854 31.664 155.854 31.0186V27.4441H158.535V32.7686H162.742V35.375H158.535V49.3751H162.444V51.9814H158.721ZM174.645 52.4283C173.355 52.4283 172.175 52.1924 171.108 51.7208C170.041 51.2492 169.122 50.579 168.353 49.7102C167.608 48.8165 167.025 47.7616 166.603 46.5453C166.181 45.3041 165.97 43.914 165.97 42.375C165.97 40.8608 166.181 39.4832 166.603 38.242C167.025 37.0009 167.608 35.9459 168.353 35.0771C169.122 34.1835 170.041 33.5009 171.108 33.0292C172.175 32.5576 173.355 32.3218 174.645 32.3218C175.936 32.3218 177.103 32.5576 178.145 33.0292C179.213 33.5009 180.131 34.1835 180.901 35.0771C181.67 35.9459 182.266 37.0009 182.688 38.242C183.11 39.4832 183.321 40.8608 183.321 42.375C183.321 43.914 183.11 45.3041 182.688 46.5453C182.266 47.7616 181.67 48.8165 180.901 49.7102C180.131 50.579 179.213 51.2492 178.145 51.7208C177.103 52.1924 175.936 52.4283 174.645 52.4283ZM174.645 49.7846C176.259 49.7846 177.574 49.2882 178.592 48.2953C179.61 47.3024 180.119 45.7882 180.119 43.7527V40.9974C180.119 38.9619 179.61 37.4477 178.592 36.4548C177.574 35.4619 176.259 34.9654 174.645 34.9654C173.032 34.9654 171.716 35.4619 170.698 36.4548C169.681 37.4477 169.172 38.9619 169.172 40.9974V43.7527C169.172 45.7882 169.681 47.3024 170.698 48.2953C171.716 49.2882 173.032 49.7846 174.645 49.7846ZM197.677 52.4283C194.376 52.4283 191.807 51.3112 189.97 49.0772C188.133 46.8183 187.214 43.5045 187.214 39.1357C187.214 34.7668 188.133 31.4158 189.97 29.0824C191.807 26.7243 194.376 25.5452 197.677 25.5452C199.862 25.5452 201.686 26.0416 203.151 27.0345C204.64 28.0275 205.794 29.4299 206.613 31.242L204.082 32.7686C203.56 31.4282 202.766 30.3608 201.699 29.5665C200.631 28.7473 199.291 28.3377 197.677 28.3377C196.56 28.3377 195.555 28.5487 194.661 28.9707C193.793 29.3927 193.048 30.0009 192.427 30.7952C191.832 31.5647 191.372 32.4956 191.05 33.5878C190.727 34.6551 190.566 35.859 190.566 37.1995V41.0718C190.566 43.7527 191.186 45.8502 192.427 47.3644C193.668 48.8786 195.418 49.6357 197.677 49.6357C199.34 49.6357 200.73 49.2137 201.848 48.3697C202.965 47.5009 203.784 46.3591 204.305 44.9442L206.8 46.508C205.98 48.3449 204.801 49.797 203.262 50.8644C201.723 51.907 199.862 52.4283 197.677 52.4283ZM218.606 52.4283C217.316 52.4283 216.137 52.1924 215.069 51.7208C214.002 51.2492 213.083 50.579 212.314 49.7102C211.569 48.8165 210.986 47.7616 210.564 46.5453C210.142 45.3041 209.931 43.914 209.931 42.375C209.931 40.8608 210.142 39.4832 210.564 38.242C210.986 37.0009 211.569 35.9459 212.314 35.0771C213.083 34.1835 214.002 33.5009 215.069 33.0292C216.137 32.5576 217.316 32.3218 218.606 32.3218C219.897 32.3218 221.064 32.5576 222.106 33.0292C223.174 33.5009 224.092 34.1835 224.862 35.0771C225.631 35.9459 226.227 37.0009 226.649 38.242C227.071 39.4832 227.282 40.8608 227.282 42.375C227.282 43.914 227.071 45.3041 226.649 46.5453C226.227 47.7616 225.631 48.8165 224.862 49.7102C224.092 50.579 223.174 51.2492 222.106 51.7208C221.064 52.1924 219.897 52.4283 218.606 52.4283ZM218.606 49.7846C220.22 49.7846 221.535 49.2882 222.553 48.2953C223.571 47.3024 224.08 45.7882 224.08 43.7527V40.9974C224.08 38.9619 223.571 37.4477 222.553 36.4548C221.535 35.4619 220.22 34.9654 218.606 34.9654C216.993 34.9654 215.677 35.4619 214.66 36.4548C213.642 37.4477 213.133 38.9619 213.133 40.9974V43.7527C213.133 45.7882 213.642 47.3024 214.66 48.2953C215.677 49.2882 216.993 49.7846 218.606 49.7846ZM232.181 51.9814V32.7686H235.16V36.3059H235.346C235.693 35.3874 236.314 34.5683 237.207 33.8484C238.101 33.1285 239.33 32.7686 240.894 32.7686H242.048V35.7473H240.298C238.684 35.7473 237.418 36.0576 236.5 36.6782C235.606 37.2739 235.16 38.031 235.16 38.9495V51.9814H232.181ZM252.894 52.4283C251.579 52.4283 250.387 52.1924 249.32 51.7208C248.277 51.2492 247.371 50.579 246.602 49.7102C245.857 48.8165 245.274 47.7616 244.852 46.5453C244.455 45.3041 244.256 43.914 244.256 42.375C244.256 40.8608 244.455 39.4832 244.852 38.242C245.274 37.0009 245.857 35.9459 246.602 35.0771C247.371 34.1835 248.277 33.5009 249.32 33.0292C250.387 32.5576 251.579 32.3218 252.894 32.3218C254.185 32.3218 255.339 32.5576 256.357 33.0292C257.375 33.5009 258.244 34.1587 258.964 35.0027C259.683 35.8218 260.23 36.8023 260.602 37.9442C260.999 39.086 261.198 40.3396 261.198 41.7048V43.1197H247.384V44.0133C247.384 44.8325 247.508 45.602 247.756 46.3219C248.029 47.0169 248.401 47.625 248.873 48.1463C249.37 48.6676 249.965 49.0772 250.66 49.3751C251.38 49.6729 252.187 49.8219 253.081 49.8219C254.297 49.8219 255.352 49.5364 256.245 48.9655C257.164 48.3946 257.871 47.5754 258.368 46.508L260.49 48.0346C259.87 49.3502 258.902 50.4176 257.586 51.2368C256.27 52.0311 254.706 52.4283 252.894 52.4283ZM252.894 34.8165C252.075 34.8165 251.331 34.9654 250.66 35.2633C249.99 35.5363 249.407 35.9335 248.91 36.4548C248.439 36.9761 248.066 37.5966 247.793 38.3165C247.52 39.0115 247.384 39.781 247.384 40.625V40.8857H257.995V40.4761C257.995 38.7633 257.524 37.3981 256.581 36.3803C255.662 35.3378 254.433 34.8165 252.894 34.8165Z" fill="black"/>
<rect x="12.6318" y="12.9629" width="51.7399" height="51.7399" rx="6.18712" fill="#005B56"/>
<g clip-path="url(#clip0_378_5146)">
<path fill-rule="evenodd" clip-rule="evenodd" d="M26.248 40.0554V27.6426H50.8687V40.0554C50.8687 42.2978 50.2683 44.4011 49.2197 46.2129C47.0899 49.8928 43.1111 52.3704 38.5584 52.3704C34.0057 52.3704 30.0269 49.8928 27.8971 46.2129C26.8485 44.4011 26.248 42.2978 26.248 40.0554Z" stroke="white" stroke-width="1.80458" stroke-miterlimit="1.5" stroke-linecap="round"/>
<path fill-rule="evenodd" clip-rule="evenodd" d="M35.1933 35.7266H34.1836V34.8076H42.9341V35.7266H41.9244V52.0153H40.3564V35.7266H39.3357V52.0153H37.7678V35.7266H36.7612V52.0153H35.1933V35.7266Z" fill="white" stroke="white" stroke-width="0.134427" stroke-miterlimit="1.5" stroke-linecap="round"/>
<path fill-rule="evenodd" clip-rule="evenodd" d="M33.498 33.7617C33.4994 33.7827 33.5 33.8038 33.5 33.8251C33.5 34.3673 33.06 34.8074 32.5181 34.8074C31.9761 34.8074 31.5361 34.3673 31.5361 33.8251C31.5361 33.2829 31.9761 32.8428 32.5181 32.8428H44.5978C44.6268 32.8428 44.6556 32.844 44.6839 32.8465C45.1856 32.8902 45.5797 33.312 45.5797 33.8251C45.5797 34.3673 45.1397 34.8074 44.5978 34.8074C44.0558 34.8074 43.6158 34.3673 43.6158 33.8251C43.6158 33.8038 43.6165 33.7827 43.6178 33.7617H33.498Z" fill="white" stroke="white" stroke-width="0.134427" stroke-miterlimit="1.5" stroke-linecap="round"/>
</g>
<defs>
<clipPath id="clip0_378_5146">
<rect width="26.6819" height="26.8108" fill="white" transform="translate(25.1611 26.5557)"/>
</clipPath>
</defs>
</svg>
