<svg width="2405" height="600" viewBox="0 0 2405 600" fill="none" xmlns="http://www.w3.org/2000/svg">
<path d="M735.944 199.083C748.269 199.083 759.535 200.143 769.741 202.261C780.14 204.379 789.095 207.942 796.606 212.949C804.116 217.763 809.893 224.215 813.938 232.303C818.174 240.391 820.293 250.405 820.293 262.345C820.293 274.477 818.078 284.684 813.649 292.965C809.412 301.053 803.538 307.6 796.028 312.607C788.517 317.422 779.659 320.888 769.452 323.006C759.246 324.932 748.173 325.895 736.233 325.895H678.171V377.024H718.034V401H608.266V377.024H647.84V223.059H608.266V199.083H735.944ZM792.273 262.345C792.273 247.902 787.266 237.791 777.252 232.014C767.43 226.044 752.602 223.059 732.766 223.059H678.171V300.764H732.766C741.818 300.764 750.002 300.282 757.32 299.32C764.638 298.164 770.897 296.142 776.096 293.253C781.296 290.365 785.244 286.513 787.94 281.699C790.828 276.692 792.273 270.241 792.273 262.345ZM841.558 377.024H875.355V283.432H841.558V259.456H900.775V297.009C911.174 269.085 931.876 255.123 962.881 255.123C964.422 255.123 966.059 255.22 967.792 255.412C969.525 255.605 971.162 255.894 972.703 256.279V281.699C970.969 281.121 968.947 280.736 966.636 280.543C964.325 280.158 962.207 279.966 960.281 279.966C951.423 279.966 943.335 281.699 936.017 285.165C928.699 288.632 922.44 293.35 917.241 299.32C912.041 305.289 907.997 312.318 905.108 320.407C902.22 328.302 900.775 336.776 900.775 345.827V377.024H934.861V401H841.558V377.024ZM1031.83 405.622C1025.86 405.622 1020.27 404.755 1015.07 403.022C1009.87 401.481 1005.35 399.171 1001.49 396.089C997.643 393.008 994.562 389.157 992.251 384.535C990.132 379.913 989.073 374.521 989.073 368.358C989.073 358.152 991.095 350.256 995.139 344.671C999.376 338.894 1004.77 334.465 1011.32 331.384C1017.86 328.11 1025.18 325.799 1033.27 324.451C1041.36 322.91 1049.45 321.273 1057.53 319.54C1065.62 317.614 1073.13 315.207 1080.07 312.318C1087.19 309.43 1092.97 304.904 1097.4 298.742C1095.86 292.965 1092.2 287.958 1086.42 283.721C1080.64 279.484 1072.07 277.366 1060.71 277.366C1048.19 277.366 1038.95 279.677 1032.98 284.299C1027.2 288.92 1023.26 295.468 1021.14 303.941H995.428C996.776 288.92 1003.03 277.173 1014.2 268.7C1025.57 260.034 1040.88 255.701 1060.13 255.701C1068.99 255.701 1077.37 256.76 1085.27 258.878C1093.16 260.997 1100.09 264.656 1106.06 269.855C1112.03 274.862 1116.66 281.603 1119.93 290.076C1123.4 298.357 1125.13 308.756 1125.13 321.273V377.024H1155.75V401H1099.71V372.98C1091.81 383.957 1082.47 392.141 1071.69 397.534C1061.1 402.926 1047.81 405.622 1031.83 405.622ZM1099.71 319.251C1096.05 324.451 1091.33 328.495 1085.55 331.384C1079.97 334.08 1074 336.294 1067.64 338.027C1061.48 339.568 1055.22 340.82 1048.87 341.783C1042.51 342.746 1036.83 344.094 1031.83 345.827C1026.82 347.56 1022.68 349.871 1019.4 352.76C1016.32 355.648 1014.78 359.789 1014.78 365.181C1014.78 370.958 1016.8 375.484 1020.85 378.757C1024.89 382.031 1030.48 383.668 1037.6 383.668C1045.88 383.668 1053.78 382.32 1061.29 379.624C1068.99 376.735 1075.64 372.98 1081.22 368.358C1086.81 363.544 1091.23 357.959 1094.51 351.604C1097.98 345.057 1099.71 338.027 1099.71 330.517V319.251ZM1241.09 255.701C1249.76 255.701 1257.85 256.856 1265.36 259.167C1273.06 261.286 1279.9 264.56 1285.87 268.989C1292.03 273.225 1297.04 278.521 1300.89 284.876C1304.93 291.231 1307.72 298.549 1309.26 306.83H1284.42C1283.65 303.171 1282.11 299.608 1279.8 296.142C1277.68 292.676 1274.79 289.594 1271.13 286.898C1267.47 284.01 1263.14 281.699 1258.13 279.966C1253.13 278.232 1247.45 277.366 1241.09 277.366C1225.3 277.366 1212.78 282.084 1203.54 291.52C1194.49 300.764 1189.96 313.763 1189.96 330.517C1189.96 346.501 1194.2 359.307 1202.67 368.936C1211.34 378.565 1224.05 383.379 1240.8 383.379C1251.78 383.379 1261.22 380.779 1269.11 375.58C1277.2 370.38 1282.3 363.255 1284.42 354.204H1309.26C1307.92 362.1 1305.32 369.225 1301.46 375.58C1297.61 381.742 1292.7 387.038 1286.73 391.467C1280.76 395.897 1273.93 399.267 1266.22 401.578C1258.52 404.081 1250.14 405.333 1241.09 405.333C1230.11 405.333 1219.91 403.696 1210.47 400.422C1201.23 396.956 1193.14 392.045 1186.21 385.69C1179.27 379.143 1173.88 371.247 1170.03 362.003C1166.18 352.76 1164.25 342.264 1164.25 330.517C1164.25 319.54 1165.99 309.526 1169.45 300.475C1173.11 291.231 1178.22 283.336 1184.76 276.788C1191.5 270.048 1199.59 264.848 1209.03 261.189C1218.46 257.53 1229.15 255.701 1241.09 255.701ZM1358.19 283.432H1327.28V259.456H1358.19V225.37L1383.61 204.861V259.456H1414.51V283.432H1383.61V359.692C1383.61 362.774 1383.8 365.662 1384.18 368.358C1384.76 371.054 1385.72 373.462 1387.07 375.58C1388.61 377.506 1390.64 379.046 1393.14 380.202C1395.64 381.357 1398.82 381.935 1402.67 381.935C1404.98 381.935 1407.58 381.646 1410.47 381.068C1413.36 380.298 1415.77 379.528 1417.69 378.757V402.155C1415.57 403.311 1412.78 404.178 1409.31 404.755C1405.85 405.526 1402.48 405.911 1399.2 405.911C1394.78 405.911 1390.15 405.429 1385.34 404.466C1380.52 403.503 1376.1 401.481 1372.05 398.4C1368.01 395.126 1364.64 390.505 1361.94 384.535C1359.44 378.565 1358.19 370.573 1358.19 360.559V283.432ZM1517.89 405.333C1507.11 405.333 1496.9 403.696 1487.27 400.422C1477.65 397.148 1469.17 392.334 1461.85 385.979C1454.73 379.624 1448.95 371.825 1444.52 362.581C1440.29 353.337 1438.17 342.649 1438.17 330.517C1438.17 319.54 1440.09 309.43 1443.94 300.186C1447.99 290.942 1453.48 283.047 1460.41 276.499C1467.54 269.952 1475.91 264.848 1485.54 261.189C1495.36 257.53 1506.15 255.701 1517.89 255.701C1529.45 255.701 1540.04 257.53 1549.67 261.189C1559.49 264.656 1567.96 269.663 1575.09 276.21C1582.21 282.565 1587.7 290.365 1591.55 299.608C1595.6 308.852 1597.62 319.155 1597.62 330.517C1597.62 342.457 1595.5 353.048 1591.27 362.292C1587.03 371.536 1581.25 379.335 1573.93 385.69C1566.81 392.045 1558.43 396.956 1548.8 400.422C1539.17 403.696 1528.87 405.333 1517.89 405.333ZM1572.2 330.517C1572.2 323.584 1571.24 316.94 1569.31 310.585C1567.39 304.038 1564.31 298.357 1560.07 293.542C1555.83 288.535 1550.25 284.587 1543.31 281.699C1536.57 278.81 1528.2 277.366 1518.18 277.366C1500.08 277.366 1486.41 281.988 1477.16 291.231C1468.11 300.475 1463.59 313.57 1463.59 330.517C1463.59 338.413 1464.55 345.634 1466.48 352.182C1468.59 358.537 1471.77 364.025 1476.01 368.647C1480.44 373.269 1486.12 376.928 1493.05 379.624C1499.98 382.127 1508.36 383.379 1518.18 383.379C1527.62 383.379 1535.71 382.127 1542.45 379.624C1549.38 376.928 1555.06 373.269 1559.49 368.647C1563.92 363.833 1567.1 358.248 1569.02 351.893C1571.14 345.345 1572.2 338.22 1572.2 330.517ZM1618.71 300.475C1618.71 284.299 1620.93 269.663 1625.36 256.568C1629.79 243.472 1636.05 232.399 1644.14 223.348C1652.22 214.104 1662.04 206.979 1673.6 201.972C1685.15 196.965 1698.06 194.462 1712.31 194.462C1725.59 194.462 1737.53 196.676 1748.13 201.106C1758.72 205.535 1767.38 212.949 1774.12 223.348V199.083H1799.83V268.7H1775.28C1774.32 261.767 1772.49 255.22 1769.79 249.057C1767.1 242.702 1763.44 237.214 1758.81 232.592C1754.19 227.97 1748.42 224.311 1741.48 221.615C1734.55 218.726 1726.46 217.282 1717.22 217.282C1705.47 217.282 1695.26 219.304 1686.6 223.348C1678.12 227.392 1671 233.073 1665.22 240.391C1659.64 247.516 1655.5 256.279 1652.8 266.678C1650.1 276.884 1648.76 288.15 1648.76 300.475C1648.76 312.415 1650.01 323.488 1652.51 333.694C1655.02 343.708 1658.96 352.374 1664.36 359.692C1669.94 367.01 1677.07 372.788 1685.73 377.024C1694.4 381.261 1704.89 383.379 1717.22 383.379C1723.77 383.379 1730.12 382.609 1736.28 381.068C1742.64 379.335 1748.32 376.639 1753.33 372.98C1758.53 369.321 1762.95 364.603 1766.61 358.826C1770.27 353.048 1772.68 345.923 1773.84 337.45H1800.7C1799.16 349.389 1795.89 359.692 1790.88 368.358C1785.87 377.024 1779.42 384.246 1771.52 390.023C1763.82 395.608 1754.96 399.748 1744.95 402.444C1734.93 405.14 1724.05 406.488 1712.31 406.488C1706.91 406.488 1700.85 405.911 1694.11 404.755C1687.37 403.6 1680.53 401.578 1673.6 398.689C1666.67 395.8 1659.93 391.853 1653.38 386.846C1646.83 381.646 1640.96 375.098 1635.76 367.203C1630.56 359.307 1626.42 349.871 1623.34 338.894C1620.26 327.917 1618.71 315.111 1618.71 300.475ZM1901.83 405.333C1891.04 405.333 1880.83 403.696 1871.21 400.422C1861.58 397.148 1853.1 392.334 1845.79 385.979C1838.66 379.624 1832.88 371.825 1828.45 362.581C1824.22 353.337 1822.1 342.649 1822.1 330.517C1822.1 319.54 1824.02 309.43 1827.88 300.186C1831.92 290.942 1837.41 283.047 1844.34 276.499C1851.47 269.952 1859.84 264.848 1869.47 261.189C1879.29 257.53 1890.08 255.701 1901.83 255.701C1913.38 255.701 1923.97 257.53 1933.6 261.189C1943.42 264.656 1951.89 269.663 1959.02 276.21C1966.15 282.565 1971.63 290.365 1975.49 299.608C1979.53 308.852 1981.55 319.155 1981.55 330.517C1981.55 342.457 1979.43 353.048 1975.2 362.292C1970.96 371.536 1965.18 379.335 1957.86 385.69C1950.74 392.045 1942.36 396.956 1932.73 400.422C1923.1 403.696 1912.8 405.333 1901.83 405.333ZM1956.13 330.517C1956.13 323.584 1955.17 316.94 1953.24 310.585C1951.32 304.038 1948.24 298.357 1944 293.542C1939.76 288.535 1934.18 284.587 1927.25 281.699C1920.5 278.81 1912.13 277.366 1902.11 277.366C1884.01 277.366 1870.34 281.988 1861.1 291.231C1852.04 300.475 1847.52 313.57 1847.52 330.517C1847.52 338.413 1848.48 345.634 1850.41 352.182C1852.53 358.537 1855.7 364.025 1859.94 368.647C1864.37 373.269 1870.05 376.928 1876.98 379.624C1883.92 382.127 1892.29 383.379 1902.11 383.379C1911.55 383.379 1919.64 382.127 1926.38 379.624C1933.31 376.928 1938.99 373.269 1943.42 368.647C1947.85 363.833 1951.03 358.248 1952.95 351.893C1955.07 345.345 1956.13 338.22 1956.13 330.517ZM2003.22 377.024H2037.02V283.432H2003.22V259.456H2062.44V297.009C2072.84 269.085 2093.54 255.123 2124.55 255.123C2126.09 255.123 2127.72 255.22 2129.46 255.412C2131.19 255.605 2132.83 255.894 2134.37 256.279V281.699C2132.63 281.121 2130.61 280.736 2128.3 280.543C2125.99 280.158 2123.87 279.966 2121.95 279.966C2113.09 279.966 2105 281.699 2097.68 285.165C2090.36 288.632 2084.11 293.35 2078.91 299.32C2073.71 305.289 2069.66 312.318 2066.77 320.407C2063.88 328.302 2062.44 336.776 2062.44 345.827V377.024H2096.53V401H2003.22V377.024ZM2224.76 405.333C2213.2 405.333 2202.61 403.6 2192.98 400.133C2183.54 396.667 2175.46 391.756 2168.72 385.401C2162.17 379.046 2157.06 371.247 2153.41 362.003C2149.75 352.76 2147.92 342.36 2147.92 330.806C2147.92 319.636 2149.75 309.526 2153.41 300.475C2157.06 291.231 2162.17 283.336 2168.72 276.788C2175.46 270.048 2183.54 264.848 2192.98 261.189C2202.61 257.53 2213.2 255.701 2224.76 255.701C2246.9 255.701 2264.33 262.634 2277.04 276.499C2289.75 290.365 2296.2 310.778 2296.39 337.739H2174.2C2174.97 346.019 2176.8 353.048 2179.69 358.826C2182.58 364.603 2186.24 369.321 2190.67 372.98C2195.1 376.639 2200.2 379.335 2205.98 381.068C2211.95 382.609 2218.21 383.379 2224.76 383.379C2235.54 383.379 2244.3 381.453 2251.04 377.602C2257.78 373.75 2262.69 369.032 2265.77 363.448H2291.77C2286.96 376.543 2278.97 386.846 2267.8 394.356C2256.63 401.674 2242.28 405.333 2224.76 405.333ZM2269.24 317.518C2268.66 312.511 2267.51 307.6 2265.77 302.786C2264.04 297.972 2261.44 293.735 2257.98 290.076C2254.51 286.224 2250.08 283.143 2244.69 280.832C2239.3 278.521 2232.75 277.366 2225.04 277.366C2210.99 277.366 2199.53 281.025 2190.67 288.343C2182 295.468 2176.71 305.193 2174.78 317.518H2269.24Z" fill="black"/>
<rect x="98" y="98" width="401.401" height="401.401" rx="32.012" fill="#005B56"/>
<path fill-rule="evenodd" clip-rule="evenodd" d="M166.505 305.441V172.256H430.735V305.441C430.735 329.501 424.291 352.068 413.037 371.509C390.18 410.992 347.479 437.577 298.62 437.577C249.761 437.577 207.06 410.992 184.203 371.509C172.949 352.068 166.505 329.501 166.505 305.441Z" stroke="white" stroke-width="8.33563" stroke-miterlimit="1.5" stroke-linecap="round" stroke-linejoin="round"/>
<path fill-rule="evenodd" clip-rule="evenodd" d="M262.501 258.986H251.665V249.126H345.575V258.986H334.739V433.758H317.912V258.986H306.958V433.758H290.131V258.986H279.328V433.758H262.501V258.986Z" fill="white" stroke="white" stroke-width="1.04289" stroke-miterlimit="1.5" stroke-linecap="round" stroke-linejoin="round"/>
<path fill-rule="evenodd" clip-rule="evenodd" d="M244.317 237.906C244.331 238.131 244.339 238.358 244.339 238.586C244.339 244.403 239.617 249.126 233.8 249.126C227.984 249.126 223.262 244.403 223.262 238.586C223.262 232.769 227.984 228.046 233.8 228.046H363.44C363.751 228.046 364.06 228.06 364.364 228.086C369.748 228.555 373.978 233.08 373.978 238.586C373.978 244.403 369.256 249.126 363.44 249.126C357.623 249.126 352.901 244.403 352.901 238.586C352.901 238.358 352.909 238.131 352.923 237.906H244.317Z" fill="white" stroke="white" stroke-width="1.04289" stroke-miterlimit="1.5" stroke-linecap="round" stroke-linejoin="round"/>
</svg>
