<svg width="929" height="914" viewBox="0 0 929 914" fill="none" xmlns="http://www.w3.org/2000/svg">
<path d="M168.398 101.987C181.292 27.8303 257.171 -17.4566 328.561 6.39731L479.662 56.886C497.806 62.9485 517.114 64.6955 536.051 61.9879L693.762 39.4395C768.273 28.7863 834.792 86.9571 834.166 162.224L832.841 321.532C832.682 340.662 836.987 359.564 845.414 376.738L915.594 519.761C948.751 587.334 913.983 668.573 842.207 691.236L690.286 739.206C672.044 744.966 655.397 754.901 641.668 768.223L527.331 879.164C473.312 931.58 385.305 923.617 341.571 862.357L249.003 732.696C237.888 717.126 223.294 704.364 206.382 695.423L65.5385 620.966C-1.00459 585.788 -20.6272 499.628 24.1199 439.103L118.831 310.999C130.203 295.617 137.831 277.794 141.108 258.946L168.398 101.987Z" fill="#EDE8D9"/>
</svg>
