<svg width="910" height="895" viewBox="0 0 910 895" fill="none" xmlns="http://www.w3.org/2000/svg">
<path d="M353.964 52.7064C409.768 -2.90236 500.037 -2.9023 555.841 52.7064L585.781 82.5412C608.606 105.287 638.445 119.656 670.459 123.32L712.452 128.126C790.722 137.084 847.004 207.66 838.321 285.961L833.662 327.97C830.11 359.997 837.48 392.285 854.576 419.6L877.001 455.428C918.798 522.207 898.711 610.213 832.079 652.244L796.33 674.794C769.075 691.986 748.426 717.879 737.73 748.275L723.7 788.146C697.55 862.46 616.22 901.626 541.815 875.737L501.895 861.847C471.462 851.258 438.343 851.258 407.909 861.847L367.99 875.737C293.584 901.626 212.254 862.46 186.104 788.146L172.074 748.275C161.378 717.879 140.729 691.986 113.475 674.794L77.726 652.244C11.0939 610.213 -8.99281 522.207 32.8041 455.428L55.2287 419.6C72.3248 392.285 79.6943 359.997 76.1426 327.97L71.4839 285.961C62.8005 207.66 119.082 137.084 197.352 128.126L239.345 123.32C271.36 119.656 301.199 105.287 324.024 82.5412L353.964 52.7064Z" stroke="#F4A72A" stroke-width="22"/>
</svg>
