<svg width="929" height="914" viewBox="0 0 929 914" fill="none" xmlns="http://www.w3.org/2000/svg">
<path d="M168.397 101.987C181.291 27.8303 257.17 -17.4566 328.56 6.39731L479.661 56.886C497.805 62.9485 517.113 64.6955 536.05 61.9879L693.761 39.4395C768.272 28.7863 834.791 86.9571 834.165 162.224L832.84 321.532C832.681 340.662 836.986 359.564 845.413 376.738L915.593 519.761C948.75 587.334 913.982 668.573 842.206 691.236L690.285 739.206C672.043 744.966 655.396 754.901 641.667 768.223L527.33 879.164C473.311 931.58 385.304 923.617 341.57 862.357L249.002 732.696C237.887 717.126 223.293 704.364 206.381 695.423L65.5376 620.966C-1.00557 585.788 -20.6282 499.628 24.1189 439.103L118.83 310.999C130.202 295.617 137.83 277.794 141.107 258.946L168.397 101.987Z" fill="#1B1B1B"/>
</svg>
